<?xml version="1.0" encoding="utf-8"?>
<!-- Generator: Adobe Illustrator 24.0.2, SVG Export Plug-In . SVG Version: 6.00 Build 0)  -->
<svg version="1.1" id="Layer_1" xmlns="http://www.w3.org/2000/svg" xmlns:xlink="http://www.w3.org/1999/xlink" x="0px" y="0px"
	 viewBox="0 0 219 65" style="enable-background:new 0 0 219 65;" xml:space="preserve">
<style type="text/css">
	.st0{fill:#A7A9AC;}
	.st1{fill:#FFFFFF;}
</style>
<g>
	<g>
		<path d="M210.34,63.71H9.1c-4.08,0-7.38-3.31-7.38-7.38V8.66c0-4.08,3.31-7.38,7.38-7.38h201.24c4.08,0,7.38,3.31,7.38,7.38v47.67
			C217.72,60.41,214.41,63.71,210.34,63.71z"/>
		<path class="st0" d="M210.34,64.52H9.1c-4.52,0-8.19-3.67-8.19-8.19V8.66c0-4.52,3.67-8.19,8.19-8.19h201.24
			c4.52,0,8.19,3.67,8.19,8.19v47.67C218.53,60.85,214.85,64.52,210.34,64.52z M9.1,2.08c-3.63,0-6.57,2.95-6.57,6.57v47.67
			c0,3.63,2.95,6.57,6.57,6.57h201.24c3.63,0,6.57-2.95,6.57-6.57V8.66c0-3.63-2.95-6.57-6.57-6.57H9.1z"/>
	</g>
	<g>
		<path class="st1" d="M73.36,18.68l-0.91,2.98h-1.98l3.37-10.52h2.45l3.42,10.52h-2.06l-0.95-2.98H73.36z M76.37,17.23l-0.83-2.59
			c-0.2-0.64-0.37-1.36-0.53-1.97h-0.03c-0.16,0.61-0.31,1.34-0.5,1.97l-0.81,2.59H76.37z"/>
		<path class="st1" d="M82.58,14.06l1.23,3.86c0.22,0.67,0.37,1.28,0.52,1.9h0.05c0.14-0.62,0.31-1.22,0.52-1.9l1.22-3.86h2.01
			l-2.9,7.6h-1.89l-2.83-7.6H82.58z"/>
		<path class="st1" d="M95.79,19.84c0,0.69,0.03,1.36,0.13,1.83h-1.73l-0.14-0.84h-0.05c-0.45,0.59-1.25,1.01-2.25,1.01
			c-1.53,0-2.39-1.11-2.39-2.26c0-1.9,1.7-2.89,4.51-2.87v-0.13c0-0.5-0.2-1.33-1.55-1.33c-0.75,0-1.53,0.23-2.04,0.56l-0.37-1.25
			c0.56-0.34,1.55-0.67,2.75-0.67c2.44,0,3.14,1.55,3.14,3.22V19.84z M93.91,17.95c-1.36-0.02-2.65,0.27-2.65,1.42
			c0,0.75,0.48,1.09,1.09,1.09c0.78,0,1.33-0.5,1.51-1.05c0.05-0.14,0.05-0.28,0.05-0.42V17.95z"/>
		<path class="st1" d="M99.45,12.97c-0.64,0-1.06-0.47-1.06-1.03c0-0.59,0.44-1.05,1.08-1.05c0.66,0,1.06,0.45,1.08,1.05
			c0,0.56-0.42,1.03-1.08,1.03H99.45z M98.5,21.66v-7.6h1.92v7.6H98.5z"/>
		<path class="st1" d="M103.18,10.56h1.92v11.1h-1.92V10.56z"/>
		<path class="st1" d="M113.78,19.84c0,0.69,0.03,1.36,0.12,1.83h-1.73l-0.14-0.84h-0.05c-0.45,0.59-1.25,1.01-2.25,1.01
			c-1.53,0-2.39-1.11-2.39-2.26c0-1.9,1.7-2.89,4.51-2.87v-0.13c0-0.5-0.2-1.33-1.54-1.33c-0.75,0-1.53,0.23-2.04,0.56l-0.37-1.25
			c0.56-0.34,1.55-0.67,2.75-0.67c2.43,0,3.14,1.55,3.14,3.22V19.84z M111.91,17.95c-1.36-0.02-2.65,0.27-2.65,1.42
			c0,0.75,0.48,1.09,1.09,1.09c0.78,0,1.33-0.5,1.51-1.05c0.05-0.14,0.05-0.28,0.05-0.42V17.95z"/>
		<path class="st1" d="M116.49,10.56h1.92v4.54h0.03c0.47-0.73,1.3-1.22,2.44-1.22c1.86,0,3.18,1.55,3.17,3.86
			c0,2.73-1.73,4.09-3.45,4.09c-0.98,0-1.86-0.38-2.4-1.31h-0.03l-0.09,1.14h-1.64c0.03-0.52,0.06-1.36,0.06-2.12V10.56z
			 M118.41,18.53c0,0.16,0.02,0.31,0.05,0.45c0.2,0.78,0.87,1.34,1.7,1.34c1.2,0,1.94-0.95,1.94-2.5c0-1.34-0.64-2.43-1.92-2.43
			c-0.78,0-1.5,0.56-1.7,1.4c-0.03,0.14-0.06,0.31-0.06,0.5V18.53z"/>
		<path class="st1" d="M126.31,10.56h1.92v11.1h-1.92V10.56z"/>
		<path class="st1" d="M132.36,18.4c0.05,1.37,1.12,1.97,2.34,1.97c0.89,0,1.51-0.14,2.11-0.34l0.28,1.31
			c-0.66,0.28-1.56,0.48-2.65,0.48c-2.47,0-3.92-1.51-3.92-3.84c0-2.11,1.28-4.09,3.72-4.09c2.47,0,3.28,2.03,3.28,3.7
			c0,0.36-0.03,0.64-0.06,0.81H132.36z M135.7,17.06c0.02-0.7-0.3-1.86-1.58-1.86c-1.19,0-1.69,1.08-1.76,1.86H135.7z"/>
		<path class="st1" d="M146.99,21.83c-2.14,0-3.81-1.47-3.81-3.92c0-2.5,1.64-4.03,3.93-4.03c2.26,0,3.78,1.59,3.78,3.9
			c0,2.79-1.97,4.04-3.89,4.04H146.99z M147.05,20.45c1.09,0,1.86-1.06,1.86-2.61c0-1.19-0.53-2.56-1.84-2.56
			c-1.36,0-1.91,1.33-1.91,2.59c0,1.47,0.73,2.58,1.87,2.58H147.05z"/>
		<path class="st1" d="M153.15,16.32c0-0.87-0.03-1.61-0.06-2.26h1.67l0.09,1.14h0.05c0.34-0.59,1.17-1.31,2.44-1.31
			c1.33,0,2.7,0.86,2.7,3.26v4.51h-1.92v-4.29c0-1.09-0.41-1.92-1.45-1.92c-0.76,0-1.29,0.55-1.5,1.12
			c-0.06,0.16-0.09,0.39-0.09,0.61v4.48h-1.92V16.32z"/>
		<path class="st1" d="M168.88,12.11v1.95h1.83v1.44h-1.83v3.34c0,0.94,0.25,1.4,0.98,1.4c0.34,0,0.53-0.02,0.75-0.08l0.03,1.45
			c-0.28,0.11-0.8,0.2-1.39,0.2c-0.72,0-1.29-0.23-1.65-0.62c-0.42-0.44-0.61-1.14-0.61-2.14V15.5h-1.08v-1.44h1.08v-1.42
			L168.88,12.11z"/>
		<path class="st1" d="M172.85,10.56h1.92v4.53h0.03c0.23-0.36,0.56-0.66,0.95-0.86c0.39-0.22,0.84-0.34,1.33-0.34
			c1.29,0,2.65,0.86,2.65,3.29v4.48h-1.92v-4.28c0-1.09-0.41-1.94-1.47-1.94c-0.75,0-1.28,0.5-1.5,1.08
			c-0.06,0.17-0.08,0.38-0.08,0.58v4.56h-1.92V10.56z"/>
		<path class="st1" d="M183.82,18.4c0.05,1.37,1.12,1.97,2.34,1.97c0.89,0,1.51-0.14,2.11-0.34l0.28,1.31
			c-0.66,0.28-1.56,0.48-2.65,0.48c-2.47,0-3.92-1.51-3.92-3.84c0-2.11,1.28-4.09,3.72-4.09c2.47,0,3.28,2.03,3.28,3.7
			c0,0.36-0.03,0.64-0.06,0.81H183.82z M187.16,17.06c0.02-0.7-0.3-1.86-1.58-1.86c-1.19,0-1.69,1.08-1.76,1.86H187.16z"/>
	</g>
	<g>
		<g>
			<path class="st1" d="M49.48,31.87c-0.05-5.21,4.26-7.74,4.46-7.86c-2.44-3.56-6.23-4.05-7.56-4.09c-3.18-0.33-6.26,1.9-7.88,1.9
				c-1.65,0-4.15-1.87-6.83-1.82c-3.46,0.06-6.69,2.06-8.47,5.16c-3.66,6.34-0.93,15.65,2.58,20.78c1.76,2.51,3.81,5.31,6.49,5.21
				c2.62-0.11,3.6-1.67,6.77-1.67c3.14,0,4.06,1.67,6.8,1.61c2.82-0.05,4.59-2.52,6.28-5.05c2.03-2.88,2.84-5.71,2.88-5.85
				C54.94,40.17,49.53,38.11,49.48,31.87"/>
			<path class="st1" d="M44.31,16.55c1.41-1.77,2.38-4.17,2.11-6.61c-2.04,0.09-4.6,1.41-6.07,3.14c-1.3,1.52-2.47,4.02-2.17,6.36
				C40.48,19.62,42.83,18.29,44.31,16.55"/>
		</g>
		<g>
			<path class="st1" d="M87.42,50.75h-3.66l-2-6.3H74.8l-1.91,6.3h-3.56l6.9-21.44h4.26L87.42,50.75z M81.16,41.81l-1.81-5.6
				c-0.19-0.57-0.55-1.92-1.08-4.04H78.2c-0.21,0.91-0.55,2.26-1.02,4.04l-1.78,5.6H81.16z"/>
			<path class="st1" d="M105.17,42.83c0,2.63-0.71,4.71-2.13,6.23c-1.27,1.36-2.85,2.03-4.74,2.03c-2.04,0-3.5-0.73-4.39-2.19h-0.06
				v8.14h-3.44V40.38c0-1.65-0.04-3.35-0.13-5.09h3.02l0.19,2.45h0.07c1.14-1.85,2.88-2.77,5.21-2.77c1.82,0,3.35,0.72,4.56,2.16
				C104.56,38.58,105.17,40.48,105.17,42.83 M101.67,42.96c0-1.5-0.34-2.75-1.02-3.72c-0.74-1.02-1.74-1.53-2.99-1.53
				c-0.85,0-1.62,0.28-2.31,0.84c-0.69,0.57-1.14,1.3-1.35,2.21c-0.11,0.42-0.16,0.77-0.16,1.05v2.58c0,1.12,0.34,2.07,1.03,2.85
				c0.69,0.78,1.59,1.16,2.69,1.16c1.29,0,2.3-0.49,3.02-1.49C101.31,45.9,101.67,44.59,101.67,42.96"/>
			<path class="st1" d="M122.95,42.83c0,2.63-0.71,4.71-2.13,6.23c-1.27,1.36-2.85,2.03-4.74,2.03c-2.03,0-3.5-0.73-4.39-2.19h-0.06
				v8.14h-3.43V40.38c0-1.65-0.04-3.35-0.13-5.09h3.02l0.19,2.45h0.07c1.14-1.85,2.88-2.77,5.21-2.77c1.82,0,3.34,0.72,4.56,2.16
				C122.34,38.58,122.95,40.48,122.95,42.83 M119.45,42.96c0-1.5-0.34-2.75-1.02-3.72c-0.74-1.02-1.74-1.53-2.99-1.53
				c-0.85,0-1.62,0.28-2.31,0.84c-0.69,0.57-1.14,1.3-1.35,2.21c-0.11,0.42-0.16,0.77-0.16,1.05v2.58c0,1.12,0.34,2.07,1.03,2.85
				c0.69,0.78,1.58,1.16,2.69,1.16c1.29,0,2.3-0.49,3.02-1.49C119.09,45.9,119.45,44.59,119.45,42.96"/>
			<path class="st1" d="M142.83,44.74c0,1.82-0.63,3.31-1.91,4.45c-1.4,1.25-3.34,1.88-5.84,1.88c-2.31,0-4.16-0.44-5.56-1.33
				l0.8-2.86c1.51,0.91,3.16,1.37,4.97,1.37c1.29,0,2.3-0.29,3.02-0.87c0.72-0.59,1.08-1.37,1.08-2.34c0-0.87-0.3-1.6-0.89-2.2
				c-0.59-0.6-1.58-1.15-2.96-1.66c-3.75-1.4-5.63-3.45-5.63-6.15c0-1.76,0.66-3.21,1.97-4.33c1.31-1.13,3.06-1.69,5.25-1.69
				c1.95,0,3.57,0.34,4.86,1.02l-0.86,2.8c-1.21-0.66-2.58-0.99-4.1-0.99c-1.21,0-2.15,0.3-2.83,0.89
				c-0.57,0.53-0.86,1.18-0.86,1.94c0,0.85,0.33,1.55,0.98,2.1c0.57,0.51,1.61,1.06,3.12,1.66c1.84,0.74,3.2,1.61,4.07,2.61
				C142.39,42.01,142.83,43.25,142.83,44.74"/>
			<path class="st1" d="M154.18,37.87h-3.78v7.51c0,1.91,0.67,2.86,2.01,2.86c0.61,0,1.12-0.05,1.52-0.16l0.09,2.61
				c-0.67,0.25-1.57,0.38-2.67,0.38c-1.36,0-2.42-0.41-3.18-1.24c-0.76-0.83-1.15-2.22-1.15-4.17v-7.79h-2.26v-2.58h2.26v-2.83
				l3.37-1.02v3.85h3.78V37.87z"/>
			<path class="st1" d="M171.26,42.89c0,2.38-0.68,4.33-2.03,5.85c-1.42,1.57-3.31,2.35-5.66,2.35c-2.27,0-4.08-0.75-5.42-2.26
				c-1.35-1.5-2.02-3.4-2.02-5.69c0-2.4,0.69-4.36,2.08-5.88c1.39-1.53,3.26-2.29,5.61-2.29c2.27,0,4.09,0.75,5.47,2.26
				C170.61,38.7,171.26,40.58,171.26,42.89 M167.7,43c0-1.42-0.31-2.65-0.92-3.67c-0.72-1.23-1.75-1.85-3.08-1.85
				c-1.38,0-2.43,0.62-3.15,1.85c-0.62,1.02-0.92,2.26-0.92,3.73c0,1.42,0.3,2.65,0.92,3.67c0.74,1.23,1.78,1.85,3.12,1.85
				c1.31,0,2.34-0.63,3.08-1.88C167.38,45.66,167.7,44.43,167.7,43"/>
			<path class="st1" d="M182.42,38.31c-0.34-0.06-0.7-0.09-1.08-0.09c-1.21,0-2.14,0.46-2.8,1.37c-0.57,0.81-0.86,1.82-0.86,3.05
				v8.11h-3.43l0.03-10.59c0-1.78-0.04-3.4-0.13-4.87h2.99l0.13,2.96h0.09c0.36-1.02,0.94-1.84,1.72-2.45
				c0.76-0.55,1.59-0.83,2.48-0.83c0.32,0,0.6,0.02,0.86,0.06V38.31z"/>
			<path class="st1" d="M197.78,42.29c0,0.62-0.04,1.13-0.12,1.56h-10.3c0.04,1.53,0.54,2.69,1.49,3.5
				c0.87,0.72,1.99,1.08,3.37,1.08c1.52,0,2.91-0.24,4.17-0.73l0.54,2.39c-1.46,0.64-3.19,0.96-5.19,0.96
				c-2.39,0-4.28-0.71-5.64-2.12c-1.36-1.41-2.05-3.3-2.05-5.68c0-2.33,0.64-4.27,1.91-5.82c1.33-1.65,3.14-2.48,5.4-2.48
				c2.23,0,3.92,0.83,5.06,2.48C197.33,38.74,197.78,40.36,197.78,42.29 M194.51,41.4c0.02-1.02-0.2-1.9-0.67-2.64
				c-0.59-0.95-1.51-1.43-2.74-1.43c-1.12,0-2.03,0.47-2.73,1.4c-0.57,0.74-0.91,1.63-1.01,2.67H194.51z"/>
		</g>
	</g>
</g>
</svg>
