<?xml version="1.0" encoding="utf-8"?>
<!-- Generator: Adobe Illustrator 24.0.2, SVG Export Plug-In . SVG Version: 6.00 Build 0)  -->
<svg version="1.1" xmlns="http://www.w3.org/2000/svg" xmlns:xlink="http://www.w3.org/1999/xlink" x="0px" y="0px"
	 viewBox="0 0 217.61 64.05" style="enable-background:new 0 0 217.61 64.05;" xml:space="preserve">
<style type="text/css">
	.st0{fill:#A7A9AC;}
	.st1{fill:#FFFFFF;}
	.st2{fill:#5BC9F4;}
	.st3{fill:url(#SVGID_1_);}
	.st4{fill:url(#SVGID_2_);}
	.st5{fill:url(#SVGID_3_);}
</style>
<g id="Google_Play">
	<g>
		<g>
			<path d="M209.43,63.25H8.19c-4.08,0-7.38-3.31-7.38-7.38V8.19c0-4.08,3.31-7.38,7.38-7.38h201.24c4.08,0,7.38,3.31,7.38,7.38
				v47.67C216.81,59.94,213.5,63.25,209.43,63.25z"/>
			<path class="st0" d="M209.43,64.05H8.19C3.67,64.05,0,60.38,0,55.86V8.19C0,3.67,3.67,0,8.19,0h201.24
				c4.52,0,8.19,3.67,8.19,8.19v47.67C217.61,60.38,213.94,64.05,209.43,64.05z M8.19,1.62c-3.63,0-6.57,2.95-6.57,6.58v47.67
				c0,3.63,2.95,6.57,6.57,6.57h201.24c3.63,0,6.57-2.95,6.57-6.57V8.19c0-3.63-2.95-6.58-6.57-6.58H8.19z"/>
		</g>
		<g>
			<path class="st1" d="M109.78,35.03c-3.78,0-6.87,2.88-6.87,6.84c0,3.94,3.08,6.84,6.87,6.84c3.78,0,6.87-2.9,6.87-6.84
				C116.64,37.91,113.56,35.03,109.78,35.03z M109.78,46.02c-2.07,0-3.86-1.71-3.86-4.15c0-2.46,1.79-4.15,3.86-4.15
				c2.07,0,3.86,1.68,3.86,4.15C113.64,44.31,111.85,46.02,109.78,46.02z M94.8,35.03c-3.78,0-6.87,2.88-6.87,6.84
				c0,3.94,3.08,6.84,6.87,6.84c3.78,0,6.87-2.9,6.87-6.84C101.66,37.91,98.58,35.03,94.8,35.03z M94.8,46.02
				c-2.07,0-3.86-1.71-3.86-4.15c0-2.46,1.79-4.15,3.86-4.15c2.07,0,3.86,1.68,3.86,4.15C98.66,44.31,96.87,46.02,94.8,46.02z
				 M76.98,37.13v2.9h6.94c-0.21,1.63-0.75,2.82-1.58,3.65c-1.01,1.01-2.59,2.12-5.36,2.12c-4.28,0-7.62-3.45-7.62-7.72
				s3.34-7.72,7.62-7.72c2.31,0,3.99,0.91,5.23,2.07l2.05-2.05c-1.74-1.66-4.04-2.93-7.28-2.93c-5.86,0-10.78,4.77-10.78,10.62
				c0,5.86,4.92,10.62,10.78,10.62c3.16,0,5.55-1.04,7.41-2.98c1.92-1.92,2.51-4.61,2.51-6.79c0-0.67-0.05-1.3-0.16-1.81H76.98z
				 M149.85,39.38c-0.57-1.53-2.31-4.35-5.86-4.35c-3.52,0-6.45,2.77-6.45,6.84c0,3.83,2.9,6.84,6.79,6.84
				c3.14,0,4.95-1.92,5.7-3.03l-2.33-1.55c-0.78,1.14-1.84,1.89-3.37,1.89c-1.53,0-2.62-0.7-3.32-2.07l9.15-3.78L149.85,39.38z
				 M140.52,41.66c-0.08-2.64,2.05-3.99,3.58-3.99c1.19,0,2.2,0.6,2.54,1.45L140.52,41.66z M133.09,48.3h3.01V28.19h-3.01V48.3z
				 M128.16,36.56h-0.1c-0.67-0.8-1.97-1.53-3.6-1.53c-3.42,0-6.56,3.01-6.56,6.87c0,3.83,3.14,6.81,6.56,6.81
				c1.63,0,2.93-0.73,3.6-1.55h0.1v0.98c0,2.62-1.4,4.02-3.65,4.02c-1.84,0-2.98-1.32-3.45-2.44l-2.62,1.09
				c0.75,1.81,2.75,4.04,6.06,4.04c3.52,0,6.5-2.07,6.5-7.13V35.44h-2.85V36.56z M124.72,46.02c-2.07,0-3.81-1.74-3.81-4.12
				c0-2.41,1.74-4.17,3.81-4.17c2.05,0,3.65,1.76,3.65,4.17C128.37,44.28,126.76,46.02,124.72,46.02z M163.93,28.19h-7.19V48.3h3
				v-7.62h4.19c3.33,0,6.6-2.41,6.6-6.24S167.26,28.19,163.93,28.19z M164.01,37.88h-4.27v-6.89h4.27c2.24,0,3.52,1.86,3.52,3.45
				C167.53,35.99,166.25,37.88,164.01,37.88z M182.55,34.99c-2.17,0-4.42,0.96-5.35,3.08l2.66,1.11c0.57-1.11,1.63-1.47,2.74-1.47
				c1.55,0,3.13,0.93,3.16,2.59v0.21c-0.54-0.31-1.71-0.78-3.13-0.78c-2.87,0-5.79,1.58-5.79,4.53c0,2.69,2.35,4.42,4.99,4.42
				c2.02,0,3.13-0.91,3.83-1.97h0.1v1.55h2.9v-7.71C188.66,36.98,186,34.99,182.55,34.99z M182.19,46.01
				c-0.98,0-2.35-0.49-2.35-1.71c0-1.55,1.71-2.15,3.18-2.15c1.32,0,1.94,0.28,2.74,0.67C185.53,44.69,183.93,46.01,182.19,46.01z
				 M199.21,35.43l-3.44,8.72h-0.1l-3.57-8.72h-3.23l5.35,12.18l-3.05,6.78h3.13l8.25-18.96H199.21z M172.18,48.3h3V28.19h-3V48.3z"
				/>
			<g>
				<path class="st2" d="M16.97,12.18c-0.47,0.49-0.74,1.26-0.74,2.26v35.54c0,1,0.28,1.76,0.74,2.26l0.12,0.12L37,32.45v-0.24
					v-0.23L17.09,12.07L16.97,12.18z"/>
				<linearGradient id="SVGID_1_" gradientUnits="userSpaceOnUse" x1="50.1902" y1="32.2126" x2="11.3046" y2="32.2126">
					<stop  offset="0" style="stop-color:#FEE000"/>
					<stop  offset="0.1941" style="stop-color:#FCCF0B"/>
					<stop  offset="0.5469" style="stop-color:#FAB318"/>
					<stop  offset="0.8279" style="stop-color:#F9A21B"/>
					<stop  offset="1" style="stop-color:#F99B1C"/>
				</linearGradient>
				<path class="st3" d="M43.64,39.09L37,32.45v-0.24v-0.23l6.64-6.64l0.15,0.09l7.86,4.47c2.25,1.28,2.25,3.36,0,4.64L43.79,39
					L43.64,39.09z"/>
				<linearGradient id="SVGID_2_" gradientUnits="userSpaceOnUse" x1="40.0989" y1="35.9003" x2="3.5253" y2="72.4739">
					<stop  offset="0" style="stop-color:#EF4547"/>
					<stop  offset="1" style="stop-color:#C6186D"/>
				</linearGradient>
				<path class="st4" d="M43.79,39L37,32.21L16.97,52.24c0.74,0.78,1.96,0.88,3.34,0.1L43.79,39"/>
				<linearGradient id="SVGID_3_" gradientUnits="userSpaceOnUse" x1="3.3623" y1="-8.213" x2="33.2237" y2="21.6484">
					<stop  offset="0" style="stop-color:#279E6F"/>
					<stop  offset="0.3168" style="stop-color:#4DAB6D"/>
					<stop  offset="0.7398" style="stop-color:#6ABA6A"/>
					<stop  offset="1" style="stop-color:#74C169"/>
				</linearGradient>
				<path class="st5" d="M43.79,25.42L20.31,12.09c-1.38-0.78-2.6-0.69-3.34,0.1L37,32.21L43.79,25.42z"/>
			</g>
		</g>
		<g>
			<path class="st1" d="M73.93,13.32c-0.6-0.54-1.4-0.88-2.28-0.88c-1.98,0-3.5,1.63-3.5,3.64c0,2,1.52,3.63,3.5,3.63
				c1.7,0,2.94-0.99,3.02-2.55h-2.69v-1.11h4.15c0,3.32-1.77,4.89-4.48,4.89c-2.69,0-4.78-2.17-4.78-4.85
				c0-2.69,2.09-4.86,4.78-4.86c1.25,0,2.38,0.48,3.2,1.25L73.93,13.32z"/>
			<path class="st1" d="M83.47,11.33v1.19h-4.33v3.02h3.78v1.2h-3.78v2.86h4.46v1.19h-5.74v-9.46H83.47z"/>
			<path class="st1" d="M91.75,11.33v1.21h-2.87v8.25h-1.29v-8.25h-2.87v-1.21H91.75z"/>
			<path class="st1" d="M97.88,11.33v9.46H96.6v-9.46H97.88z"/>
			<path class="st1" d="M106.59,11.33v1.21h-2.87v8.25h-1.29v-8.25h-2.87v-1.21H106.59z"/>
			<path class="st1" d="M115.6,11.22c2.71,0,4.81,2.17,4.81,4.86c0,2.68-2.1,4.85-4.81,4.85c-2.69,0-4.78-2.17-4.78-4.85
				C110.82,13.39,112.91,11.22,115.6,11.22z M115.6,19.69c1.99,0,3.52-1.61,3.52-3.61c0-2.01-1.52-3.63-3.52-3.63
				c-1.98,0-3.5,1.62-3.5,3.63C112.1,18.09,113.62,19.69,115.6,19.69z"/>
			<path class="st1" d="M127.96,20.79l-4.31-7.13v7.13h-1.28v-9.46h1.26l4.27,7.07v-7.07h1.28v9.46H127.96z"/>
		</g>
	</g>
</g>
<g id="App_Store">
</g>
</svg>
